<?xml version="1.0" encoding="UTF-8"?>
<svg id="Layer_1" xmlns="http://www.w3.org/2000/svg" version="1.1" viewBox="0 0 881.9 251.4">
  <!-- Generator: Adobe Illustrator 30.0.0, SVG Export Plug-In . SVG Version: 2.1.1 Build 123)  -->
  <defs>
    <style>
      .st0 {
        fill: #231f20;
      }

      .st1 {
        fill: none;
        stroke: #f3b41b;
        stroke-miterlimit: 10;
        stroke-width: 2px;
      }

      .st2 {
        fill: #133d59;
      }
    </style>
  </defs>
  <path class="st1" d="M93.09,216.72v-50.09c0-13.47-6.39-25.65-16.73-34.47-10.34-8.82-24.63-14.27-40.41-14.27v-41.51c16.94,0,32.96,3.4,47.17,9.45,11.35,4.83,21.54,11.35,30.12,19.18,3.32-4.66,7-9.12,11.01-13.33l-.21-.18c-22.55-19.23-53.69-31.13-88.09-31.13v-12.75c38.36,0,73.11,13.21,98.34,34.6,25.23-21.38,59.98-34.6,98.34-34.6v12.75c-34.4,0-65.55,11.9-88.09,31.13l-.21.18c4.01,4.22,7.69,8.67,11.01,13.33,8.58-7.83,18.77-14.35,30.12-19.18,14.21-6.05,30.23-9.45,47.17-9.45v41.51c-15.79,0-30.07,5.45-40.41,14.27-10.34,8.82-16.73,21.01-16.73,34.47v50.09h42.2v-85.65c4.74-1.45,9.78-2.2,14.95-2.2v100.6h-72.09v-62.84c0-24.59-9.8-47.24-26.25-65.25-16.45,18.01-26.25,40.65-26.25,65.25v62.84H35.94v-100.6c5.16,0,10.21.76,14.95,2.2v85.65h42.2ZM122.99,181.47h22.6v48h-22.6v-48h0ZM217.68,90.16c-9.05,1.28-17.64,3.69-25.56,7.06-11.32,4.82-21.29,11.58-29.31,19.78,3.15,5.85,5.76,11.96,7.78,18.27,3.09-4.44,6.81-8.51,11.06-12.14,9.69-8.26,22.12-14.18,36.03-16.69v-16.29h0ZM50.89,106.45c13.91,2.5,26.35,8.42,36.03,16.69,4.25,3.63,7.97,7.7,11.06,12.14,2.02-6.32,4.63-12.42,7.78-18.27-8.02-8.2-17.99-14.97-29.31-19.78-7.93-3.37-16.52-5.79-25.56-7.06v16.29h0ZM35.94,21.83h196.68v12.75H35.94v-12.75h0Z"/>
  <g>
    <path class="st2" d="M299.95,97.45h20.35v15.87h-20.35v20.47h25.68v15.87h-45.3V63.9h45.66l-2.06,15.87h-23.98v17.68Z"/>
    <path class="st2" d="M366.45,147.48c-1.62,1.13-3.69,2.08-6.24,2.85-2.54.77-4.9,1.15-7.07,1.15-3.53,0-6.36-.65-8.48-1.94-2.12-1.29-3.75-3.03-4.87-5.21-1.12-2.18-1.85-4.72-2.17-7.63-.32-2.91-.48-5.97-.48-9.21V61.36l17.93-2.67v67.71c0,2.26.04,4.04.12,5.33.08,1.29.24,2.28.48,2.97.24.69.62,1.11,1.15,1.27.52.16,1.23.24,2.12.24.48,0,1.13-.12,1.94-.36.81-.24,1.57-.56,2.3-.97l3.27,12.6Z"/>
    <path class="st2" d="M377.83,149.66v-46.88h-6.54v-14.29h24.71v61.17h-18.17ZM397.33,67.29c0,1.53-.28,3.01-.85,4.42-.57,1.41-1.35,2.65-2.36,3.69-1.01,1.05-2.2,1.88-3.57,2.48-1.37.61-2.83.91-4.36.91-1.62,0-3.09-.3-4.42-.91-1.33-.61-2.48-1.43-3.45-2.48-.97-1.05-1.74-2.28-2.3-3.69-.57-1.41-.85-2.89-.85-4.42,0-3.07,1.05-5.71,3.15-7.93,2.1-2.22,4.76-3.33,7.99-3.33,1.53,0,2.97.3,4.3.91,1.33.61,2.5,1.44,3.51,2.48,1.01,1.05,1.8,2.24,2.36,3.57.56,1.33.85,2.77.85,4.3Z"/>
    <path class="st2" d="M448.93,147.48c-.97.57-2.16,1.09-3.57,1.57-1.41.48-2.89.91-4.42,1.27-1.54.36-3.05.65-4.54.85-1.5.2-2.85.3-4.06.3-3.29,0-6.06-.47-8.3-1.39-2.25-.93-4.05-2.26-5.41-4-1.36-1.74-2.35-3.82-2.95-6.24-.6-2.42-.9-5.09-.9-7.99v-29.8h-8.84v-13.57h8.84v-17.32l17.93-2.66v19.99h14.9l-1.7,13.57h-13.2v28.71c0,1.7.22,3.09.67,4.18.44,1.09,1.47,1.64,3.09,1.64,1.13,0,2.44-.2,3.94-.61,1.49-.4,3.25-1.09,5.27-2.06l3.27,13.57Z"/>
    <path class="st2" d="M471.82,122.89c.32,5.73,1.45,9.69,3.39,11.87s4.44,3.27,7.51,3.27c2.83,0,5.45-.54,7.87-1.64,2.42-1.09,4.72-2.32,6.9-3.69l6.18,11.87c-3.39,2.5-6.96,4.32-10.72,5.45s-7.57,1.7-11.45,1.7c-9.13,0-15.93-2.89-20.41-8.66-4.48-5.77-6.72-13.63-6.72-23.56,0-5.01.56-9.55,1.7-13.63,1.13-4.08,2.79-7.55,4.97-10.42,2.18-2.87,4.88-5.09,8.12-6.66,3.23-1.57,6.98-2.36,11.26-2.36s8.2.81,11.26,2.42c3.07,1.62,5.55,3.88,7.45,6.78,1.9,2.91,3.27,6.34,4.12,10.3.85,3.96,1.27,8.24,1.27,12.84,0,.48-.02,1.15-.06,2-.04.85-.1,1.56-.18,2.12h-32.46ZM480.18,98.18c-2.59,0-4.5.99-5.75,2.97-1.25,1.98-2.08,5.39-2.48,10.24h16.35c-.16-4.68-.95-8.06-2.36-10.11-1.41-2.06-3.33-3.09-5.75-3.09Z"/>
    <path class="st2" d="M579.87,147.48c-.97.57-2.16,1.09-3.57,1.57-1.41.48-2.89.91-4.42,1.27-1.54.36-3.05.65-4.54.85-1.5.2-2.85.3-4.06.3-3.29,0-6.06-.47-8.3-1.39-2.25-.93-4.05-2.26-5.41-4-1.36-1.74-2.34-3.82-2.95-6.24-.6-2.42-.9-5.09-.9-7.99v-29.8h-8.84v-13.57h8.84v-17.32l17.93-2.66v19.99h14.9l-1.7,13.57h-13.2v28.71c0,1.7.22,3.09.67,4.18.44,1.09,1.47,1.64,3.09,1.64,1.13,0,2.44-.2,3.94-.61,1.49-.4,3.25-1.09,5.27-2.06l3.27,13.57Z"/>
    <path class="st2" d="M621.41,104.72c-1.05-.73-2.02-1.23-2.91-1.51-.89-.28-2.02-.42-3.39-.42-1.86,0-3.37.59-4.54,1.76-1.17,1.17-2.32,2.93-3.45,5.27v39.85h-17.93v-46.63c0-2.26-.06-4.64-.18-7.15-.12-2.5-.51-4.97-1.15-7.39l14.41-1.94c.56,1.05,1.17,2.38,1.82,4,.65,1.62,1.17,3.43,1.57,5.45,1.29-2.83,2.93-5.13,4.91-6.9,1.98-1.78,4.5-2.67,7.57-2.67,1.78,0,3.27.2,4.48.61,1.21.4,2.5,1.05,3.88,1.94l-5.09,15.75Z"/>
    <path class="st2" d="M678.1,134.4c0,2.26.06,4.64.18,7.15.12,2.5.5,4.97,1.15,7.39l-14.05,1.94c-.48-.89-.95-1.92-1.39-3.09-.45-1.17-.87-2.32-1.27-3.45-1.94,2.1-4.12,3.78-6.54,5.03-2.42,1.25-5.05,1.88-7.87,1.88-5.57,0-9.91-1.67-13.02-5.03-3.11-3.35-4.66-7.93-4.66-13.75,0-4.04.83-7.45,2.48-10.24,1.65-2.79,3.88-5.05,6.66-6.78,2.79-1.74,5.95-2.99,9.51-3.75,3.55-.77,7.27-1.15,11.14-1.15v-3.51c0-2.26-.51-3.94-1.51-5.03-1.01-1.09-3.05-1.64-6.12-1.64-1.78,0-3.92.34-6.42,1.03-2.5.69-5.05,1.72-7.63,3.09l-4.48-12.84c3.07-1.53,6.36-2.77,9.87-3.69,3.51-.93,7.04-1.39,10.6-1.39s6.64.36,9.51,1.09c2.87.73,5.33,1.86,7.39,3.39,2.06,1.53,3.65,3.51,4.78,5.94,1.13,2.42,1.7,5.33,1.7,8.72v28.71ZM660.41,121.68c-4.84,0-8.14.87-9.87,2.6-1.74,1.74-2.6,4.14-2.6,7.21,0,2.34.34,4.24,1.03,5.69.68,1.45,1.92,2.18,3.69,2.18,1.37,0,2.68-.42,3.94-1.27,1.25-.85,2.52-2,3.82-3.45v-12.96Z"/>
    <path class="st2" d="M722.43,149.66h-17.68l-19.02-59.96,19.5-2.18,7.15,32.95,1.7,11.63,1.82-11.63,7.63-32.95,18.29,2.18-19.38,59.96Z"/>
    <path class="st2" d="M764.83,122.89c.32,5.73,1.45,9.69,3.39,11.87,1.94,2.18,4.44,3.27,7.51,3.27,2.83,0,5.45-.54,7.87-1.64,2.42-1.09,4.72-2.32,6.9-3.69l6.18,11.87c-3.39,2.5-6.96,4.32-10.72,5.45s-7.57,1.7-11.45,1.7c-9.13,0-15.93-2.89-20.41-8.66-4.48-5.77-6.72-13.63-6.72-23.56,0-5.01.56-9.55,1.7-13.63,1.13-4.08,2.79-7.55,4.97-10.42,2.18-2.87,4.88-5.09,8.12-6.66,3.23-1.57,6.98-2.36,11.26-2.36s8.2.81,11.26,2.42c3.07,1.62,5.55,3.88,7.45,6.78,1.9,2.91,3.27,6.34,4.12,10.3.85,3.96,1.27,8.24,1.27,12.84,0,.48-.02,1.15-.06,2-.04.85-.1,1.56-.18,2.12h-32.46ZM773.18,98.18c-2.58,0-4.5.99-5.75,2.97-1.25,1.98-2.08,5.39-2.48,10.24h16.35c-.16-4.68-.95-8.06-2.36-10.11-1.41-2.06-3.33-3.09-5.75-3.09Z"/>
    <path class="st2" d="M837.86,147.48c-1.62,1.13-3.69,2.08-6.24,2.85-2.54.77-4.9,1.15-7.07,1.15-3.53,0-6.36-.65-8.48-1.94-2.12-1.29-3.75-3.03-4.87-5.21-1.12-2.18-1.85-4.72-2.17-7.63-.32-2.91-.48-5.97-.48-9.21V61.36l17.93-2.67v67.71c0,2.26.04,4.04.12,5.33.08,1.29.24,2.28.48,2.97.24.69.62,1.11,1.15,1.27.52.16,1.23.24,2.12.24.49,0,1.13-.12,1.94-.36.81-.24,1.57-.56,2.3-.97l3.27,12.6Z"/>
  </g>
  <g>
    <path class="st0" d="M520.83,172.57c1.63-.35,4.18-.61,6.73-.61,3.7,0,6.06.63,7.84,2.07,1.48,1.12,2.38,2.82,2.38,5.05,0,2.76-1.84,5.19-4.83,6.25v.11c2.72.65,5.89,2.89,5.89,7.16,0,2.44-.97,4.32-2.44,5.68-1.96,1.85-5.18,2.68-9.85,2.68-2.56,0-4.49-.18-5.72-.32v-28.08ZM524.51,184.26h3.38c3.86,0,6.14-2.05,6.14-4.82,0-3.31-2.51-4.65-6.24-4.65-1.71,0-2.68.13-3.28.27v9.2ZM524.51,197.91c.75.15,1.77.19,3.11.19,3.83,0,7.34-1.4,7.34-5.55,0-3.88-3.36-5.51-7.38-5.51h-3.07v10.88Z"/>
    <path class="st0" d="M548.08,174.45c0,1.27-.89,2.31-2.37,2.31-1.35,0-2.25-1.05-2.25-2.31,0-1.28.95-2.32,2.32-2.32s2.29,1.02,2.3,2.32ZM543.92,200.72v-20.48h3.71v20.48h-3.71Z"/>
    <path class="st0" d="M554.03,186.62c0-2.42-.06-4.48-.17-6.38h3.26l.14,4.02h.13c.96-2.75,3.21-4.48,5.7-4.48.4,0,.7.03,1.04.1v3.5c-.38-.08-.75-.11-1.27-.11-2.62,0-4.48,1.98-4.98,4.76-.1.52-.15,1.13-.15,1.74v10.94h-3.71v-14.1Z"/>
    <path class="st0" d="M581.76,174.35v5.9h5.35v2.82h-5.35v11.04c0,2.55.73,3.99,2.82,3.99.96,0,1.67-.12,2.16-.27l.17,2.83c-.72.28-1.88.51-3.33.51-1.71,0-3.13-.56-4.02-1.58-1.03-1.13-1.45-2.94-1.45-5.34v-11.18h-3.17v-2.82h3.17v-4.93l3.65-.96Z"/>
    <path class="st0" d="M608.64,195.12c0,2.15.07,3.99.17,5.6h-3.29l-.2-3.35h-.1c-.94,1.65-3.11,3.81-6.78,3.81-3.2,0-7.05-1.8-7.05-8.97v-11.97h3.71v11.31c0,3.9,1.22,6.56,4.58,6.56,2.5,0,4.24-1.75,4.93-3.42.19-.54.34-1.2.34-1.91v-12.54h3.71v14.87Z"/>
    <path class="st0" d="M615.05,186.62c0-2.42-.06-4.48-.17-6.38h3.26l.14,4.02h.13c.96-2.75,3.21-4.48,5.7-4.48.4,0,.7.03,1.04.1v3.5c-.38-.08-.75-.11-1.27-.11-2.62,0-4.48,1.98-4.98,4.76-.1.52-.15,1.13-.15,1.74v10.94h-3.71v-14.1Z"/>
    <path class="st0" d="M646.37,170.66v24.78c0,1.82.07,3.87.17,5.28h-3.31l-.19-3.54h-.1c-1.14,2.29-3.6,4.01-6.95,4.01-4.96,0-8.79-4.2-8.79-10.4-.03-6.84,4.22-11,9.2-11,3.14,0,5.26,1.47,6.18,3.11h.08v-12.23h3.7ZM642.67,188.57c0-.48-.04-1.1-.16-1.59-.58-2.35-2.59-4.29-5.39-4.29-3.86,0-6.16,3.38-6.16,7.88,0,4.16,2.07,7.61,6.09,7.61,2.49,0,4.76-1.68,5.44-4.47.13-.49.18-1.01.18-1.6v-3.55Z"/>
    <path class="st0" d="M664.14,200.72l-.33-2.59h-.11c-1.12,1.6-3.33,3.05-6.26,3.05-4.14,0-6.25-2.94-6.25-5.88,0-4.96,4.4-7.68,12.31-7.63v-.44c0-1.66-.47-4.75-4.66-4.72-1.91,0-3.9.57-5.33,1.53l-.85-2.48c1.7-1.09,4.18-1.8,6.76-1.8,6.26,0,7.79,4.28,7.79,8.38v7.66c0,1.75.08,3.49.31,4.9h-3.36ZM663.56,190.26c-4.03-.09-8.64.64-8.64,4.6,0,2.44,1.61,3.57,3.48,3.57,2.7,0,4.4-1.7,4.99-3.43.13-.4.18-.82.18-1.17v-3.56Z"/>
    <path class="st0" d="M673.41,185.77c0-2.14-.07-3.83-.17-5.53h3.29l.21,3.37h.1c1.01-1.92,3.39-3.83,6.77-3.83,2.81,0,7.22,1.69,7.22,8.73v12.22h-3.71v-11.81c0-3.31-1.25-6.08-4.73-6.08-2.44,0-4.35,1.74-5.02,3.82-.16.46-.26,1.11-.26,1.73v12.34h-3.71v-14.95Z"/>
    <path class="st0" d="M706.67,200.72v-17.66h-2.86v-2.82h2.86v-.99c0-2.89.66-5.5,2.38-7.17,1.4-1.35,3.27-1.89,4.98-1.89,1.35,0,2.47.28,3.18.6l-.49,2.86c-.57-.25-1.3-.47-2.39-.47-3.14,0-3.97,2.79-3.97,5.95v1.11h4.95v2.82h-4.93v17.66h-3.71Z"/>
    <path class="st0" d="M730.24,200.72l-.33-2.59h-.11c-1.12,1.6-3.33,3.05-6.26,3.05-4.14,0-6.25-2.94-6.25-5.88,0-4.96,4.4-7.68,12.31-7.63v-.44c0-1.66-.47-4.75-4.66-4.72-1.91,0-3.9.57-5.33,1.53l-.85-2.48c1.7-1.09,4.18-1.8,6.76-1.8,6.26,0,7.79,4.28,7.79,8.38v7.66c0,1.75.08,3.49.31,4.9h-3.36ZM729.66,190.26c-4.03-.09-8.64.64-8.64,4.6,0,2.44,1.61,3.57,3.48,3.57,2.7,0,4.4-1.7,4.99-3.43.13-.4.18-.82.18-1.17v-3.56Z"/>
    <path class="st0" d="M737.17,198.55l9.26-12.04c.91-1.14,1.74-2.11,2.69-3.21v-.09h-11.13v-2.98h15.64l-.02,2.32-9.15,11.9c-.88,1.11-1.72,2.16-2.63,3.18v.09h11.96v2.98h-16.62v-2.17Z"/>
    <path class="st0" d="M757.84,170.66h3.71v30.06h-3.71v-30.06Z"/>
    <path class="st0" d="M779.4,200.72l-.33-2.59h-.11c-1.12,1.6-3.33,3.05-6.26,3.05-4.14,0-6.25-2.94-6.25-5.88,0-4.96,4.4-7.68,12.31-7.63v-.44c0-1.66-.47-4.75-4.66-4.72-1.91,0-3.9.57-5.33,1.53l-.85-2.48c1.7-1.09,4.18-1.8,6.76-1.8,6.26,0,7.79,4.28,7.79,8.38v7.66c0,1.75.08,3.49.31,4.9h-3.36ZM778.82,190.26c-4.03-.09-8.64.64-8.64,4.6,0,2.44,1.61,3.57,3.48,3.57,2.7,0,4.4-1.7,4.99-3.43.13-.4.18-.82.18-1.17v-3.56Z"/>
    <path class="st0" d="M788.14,196.93c1.12.7,3.08,1.46,4.94,1.46,2.72,0,3.98-1.34,3.98-3.05s-1.08-2.73-3.8-3.75c-3.7-1.34-5.45-3.35-5.44-5.81,0-3.3,2.68-6,7.08-6,2.08,0,3.88.56,5.02,1.26l-.92,2.71c-.79-.49-2.29-1.21-4.2-1.21-2.2,0-3.39,1.27-3.39,2.81,0,1.69,1.2,2.45,3.89,3.49,3.53,1.31,5.36,3.09,5.37,6.15,0,3.63-2.82,6.17-7.66,6.17-2.24,0-4.31-.58-5.75-1.43l.9-2.81Z"/>
    <path class="st0" d="M805.65,200.72v-20.48h3.71v20.48h-3.71Z"/>
    <path class="st0" d="M814.88,198.53c0-1.56,1.05-2.69,2.53-2.69s2.49,1.11,2.5,2.69c0,1.49-.99,2.65-2.53,2.65s-2.52-1.16-2.5-2.65Z"/>
    <path class="st0" d="M823.86,198.53c0-1.56,1.05-2.69,2.53-2.69s2.49,1.11,2.5,2.69c0,1.49-.99,2.65-2.53,2.65s-2.52-1.16-2.5-2.65Z"/>
    <path class="st0" d="M832.84,198.53c0-1.56,1.05-2.69,2.53-2.69s2.49,1.11,2.5,2.69c0,1.49-.99,2.65-2.53,2.65s-2.52-1.16-2.5-2.65Z"/>
  </g>
</svg>